# xmcd
#
# Track frame offsets: 
#        150
#        16997
#        30871
#        46643
#        63055
#        79419
#        92940
#        107424
#        119691
#        136837
#        148594
#
# Disc length: 2247 seconds
#
# Revision: 0
# Processed by: cddbd v1.5.2PL0 Copyright (c) Steve Scherf et al.
# Submitted via: ExactAudioCopy v1.0b4
#
DISCID=8408c50b
DTITLE=Bill Phillippe - Parade
DYEAR=2016
DGENRE=Blues
TTITLE0=Blues Come Callin' (Home)
TTITLE1=Proper Sorrow
TTITLE2=14th Street
TTITLE3=If I Should Lose My Mind
TTITLE4=Solitude - A Kinder Voice
TTITLE5=Everything I Have Is Grey
TTITLE6=Parade
TTITLE7=Tonight
TTITLE8=Little Zion
TTITLE9=Red Beret
TTITLE10=Take It With Me
EXTD=
EXTT0=
EXTT1=
EXTT2=
EXTT3=
EXTT4=
EXTT5=
EXTT6=
EXTT7=
EXTT8=
EXTT9=
EXTT10=
PLAYORDER=
